<svg id="undraw_publish_article_icso" xmlns="http://www.w3.org/2000/svg" width="742.571" height="670.208" viewBox="0 0 742.571 670.208">
  <path id="Path_1" data-name="Path 1" d="M683.679,744.339c3.986,12.061-4.177,25.6-4.177,25.6s-14.625-6.012-18.611-18.073,4.177-25.6,4.177-25.6S679.694,732.278,683.679,744.339Z" transform="translate(-228.714 -114.896)" fill="#e6e6e6"/>
  <path id="Path_2" data-name="Path 2" d="M955.9,755.284c-7.6,10.178-23.376,11.249-23.376,11.249s-3.454-15.431,4.146-25.609,23.376-11.249,23.376-11.249S963.5,745.106,955.9,755.284Z" transform="translate(-228.714 -114.896)" fill="#e6e6e6"/>
  <ellipse id="Ellipse_1" data-name="Ellipse 1" cx="169" cy="12" rx="169" ry="12" transform="translate(404.571 646.208)" fill="#e6e6e6"/>
  <path id="Path_13" data-name="Path 13" d="M0,0H654.863V419.4H0Z" transform="translate(0.28 0.371)" fill="#bebebe"/>
  <rect id="Rectangle_2" data-name="Rectangle 2" width="617.412" height="341.988" transform="translate(19.005 52.975)" fill="#fff"/>
  <rect id="Rectangle_3" data-name="Rectangle 3" width="654.863" height="27.821" fill="#919191"/>
  <circle id="Ellipse_2" data-name="Ellipse 2" cx="5.156" cy="5.156" r="5.156" transform="translate(15.518 9.067)" fill="#fff"/>
  <circle id="Ellipse_3" data-name="Ellipse 3" cx="5.156" cy="5.156" r="5.156" transform="translate(35.09 9.067)" fill="#fff"/>
  <circle id="Ellipse_4" data-name="Ellipse 4" cx="5.156" cy="5.156" r="5.156" transform="translate(54.663 9.067)" fill="#fff"/>
  <rect id="Rectangle_4" data-name="Rectangle 4" width="231.169" height="22.973" transform="translate(211.989 82.969)" fill="#e6e6e6"/>
  <rect id="Rectangle_5" data-name="Rectangle 5" width="231.169" height="8.701" transform="translate(211.989 137.083)" fill="#e6e6e6"/>
  <rect id="Rectangle_6" data-name="Rectangle 6" width="231.169" height="8.701" transform="translate(211.989 163.641)" fill="#e6e6e6"/>
  <rect id="Rectangle_7" data-name="Rectangle 7" width="119.445" height="8.701" transform="translate(211.989 190.536)" fill="#e6e6e6"/>
  <rect id="Rectangle_8" data-name="Rectangle 8" width="231.169" height="8.701" transform="translate(211.989 217.908)" fill="#e6e6e6"/>
  <rect id="Rectangle_9" data-name="Rectangle 9" width="231.169" height="8.701" transform="translate(211.989 245.28)" fill="#e6e6e6"/>
  <rect id="Rectangle_10" data-name="Rectangle 10" width="115.445" height="8.701" transform="translate(211.989 272.651)" fill="#e6e6e6"/>
  <rect id="Rectangle_11" data-name="Rectangle 11" width="231.169" height="8.701" transform="translate(211.989 300.023)" fill="#e6e6e6"/>
  <rect id="Rectangle_12" data-name="Rectangle 12" width="231.169" height="8.701" transform="translate(211.989 327.395)" fill="#e6e6e6"/>
  <path id="Path_14" data-name="Path 14" d="M0,0H73V24H0Z" transform="translate(370.434 360.969)" fill="#bfbfbf"/>
  <path id="Path_3" data-name="Path 3" d="M686.455,467.561,685.9,468l-12.821,10.074s-18.155,19.11-24.844,8.6,19.11-22.932,19.11-22.932l9.555-6.689Z" transform="translate(-228.714 -114.896)" fill="#c7c7c7"/>
  <path id="Path_4" data-name="Path 4" d="M891.414,480.46s-7.644,26.755-9.555,28.666L867.526,488.1l6.689-11.466Z" transform="translate(-228.714 -114.896)" fill="#c7c7c7"/>
  <path id="Path_5" data-name="Path 5" d="M868.96,483.8l13.377,25.8-6.689,25.8v81.219l6.689,121.351H846.983L813.539,541.136,776.274,737.973h-36.31l7.644-126.129L745.7,538.269s.956-43,10.511-46.82S868.96,483.8,868.96,483.8Z" transform="translate(-228.714 -114.896)" fill="#2f2e41"/>
  <path id="Path_6" data-name="Path 6" d="M874.693,733.2l2.867,11.466s10.511,7.644,7.644,16.244-.956,13.377-7.644,15.288-28.666,4.778-27.71-4.778,0-29.621,0-29.621l2.867-6.689Z" transform="translate(-228.714 -114.896)" fill="#2f2e41"/>
  <path id="Path_7" data-name="Path 7" d="M748.564,733.2,745.7,744.662s-10.511,7.644-7.644,16.244.956,13.377,7.644,15.288,28.666,4.778,27.71-4.778,0-29.621,0-29.621l-2.867-6.689Z" transform="translate(-228.714 -114.896)" fill="#2f2e41"/>
  <path id="Path_15" data-name="Path 15" d="M33.289,0A33.289,33.289,0,0,1,66.579,33.289c0,13.182-19.047,30.1-19.047,30.1s-9.04,3.192-14.243,3.192A33.289,33.289,0,0,1,33.289,0Z" transform="translate(523.348 97.541)" fill="#c7c7c7"/>
  <path id="Path_8" data-name="Path 8" d="M582.465,145.179l4.592,37.881H545.732l3.444-32.142Z" fill="#c7c7c7"/>
  <path id="Path_9" data-name="Path 9" d="M731.842,313.244s41.088-27.71,61.154-27.71,70.709,10.511,78.353,22.932L865.616,442.24s13.377,20.066,5.733,27.71,1.433,23.41,1.433,23.41-59.72-3.344-79.786,5.255-43.954,0-43.954,0,10.033-12.9.478-16.722,5.733-64.975,5.733-64.975l-4.3-38.7Z" transform="translate(-228.714 -114.896)" fill="#636363"/>
  <path id="Path_10" data-name="Path 10" d="M862.749,308.467l7.166-1.433s46.343,75.008,43.476,91.252-21.021,89.819-21.021,89.819l-24.844-6.689,14.333-69.753-22.932-58.287Z" transform="translate(-228.714 -114.896)" fill="#636363"/>
  <path id="Path_11" data-name="Path 11" d="M742.353,317.066l-10.033-4.3a101.983,101.983,0,0,1-5.879,13.184c-11.852,22.293-15.62,95.267-15.62,95.267l-41.087,34.4,14.333,21.021s53.475-30.984,62.109-48.732c7.21-14.822,6.211-67.364,6.211-67.364Z" transform="translate(-228.714 -114.896)" fill="#636363"/>
  <path id="Path_12" data-name="Path 12" d="M812.565,268.535s33.792-24.137,16.091-53.1c-12.279-20.094-37.725-18.5-52.158-15.644a24.385,24.385,0,0,0-17.839,14.035c-2.414,5.632-2.414,11.264,7.241,11.264,19.31,0,9.655,14.482,9.655,14.482s12.873,3.218,9.655,14.482S812.565,268.535,812.565,268.535Z" transform="translate(-228.714 -114.896)" fill="#2f2e41"/>
</svg>
