<svg xmlns="http://www.w3.org/2000/svg" width="50.001" height="50.001" viewBox="0 0 50.001 50.001">
  <g id="Group_7" data-name="Group 7" transform="translate(0 0)">
    <g id="Group_2" data-name="Group 2">
      <g id="Group_1" data-name="Group 1">
        <path id="Path_2" data-name="Path 2" d="M42.678,7.322a25,25,0,1,0,0,35.356,25,25,0,0,0,0-35.356ZM25,48.008A23.008,23.008,0,1,1,48.008,25,23.008,23.008,0,0,1,25,48.008Z" fill="#fff"/>
      </g>
    </g>
    <path id="Path_4" data-name="Path 4" d="M52.108,49.558a1.081,1.081,0,0,0-1.377-.607A22.976,22.976,0,0,0,39.922,57,21.671,21.671,0,0,0,35.7,69.877a1.071,1.071,0,0,0,2.14,0A20.393,20.393,0,0,1,51.48,50.888a1.024,1.024,0,0,0,.628-1.33Z" transform="translate(-31.952 -43.931)" fill="#fff"/>
  </g>
</svg>
