<svg xmlns="http://www.w3.org/2000/svg" width="116.991" height="125.01" viewBox="0 0 116.991 125.01">
  <g id="cry" transform="translate(-5.412 0.01)">
    <g id="Group_1" data-name="Group 1" transform="translate(2.412)">
      <path id="Path_1" data-name="Path 1" d="M112.388,66.847c-3.371-23.3-22.263-41.259-45.143-42.992C71.658,18,72.765,9.914,69.792,4.806A9.7,9.7,0,0,0,60.968,0a19.042,19.042,0,0,0-5.531.92,8.635,8.635,0,0,0-6.308,9.739c.525,2.839,2.956,6.157,8.071,6.157a10.1,10.1,0,0,0,1.039-.047c5.133,0,7.117-3.337,7.253-6.2A8.651,8.651,0,0,0,60.224,2.4c3.483-.2,6.1,1.067,7.589,3.615,2.7,4.641,1.094,12.717-3.5,17.7l-.138-.007h-.589c-24.324,0-45.257,18.558-48.793,43.2a10.921,10.921,0,0,0,1.249,21.729h.2C22.379,110.057,41.808,125,63.588,125c21.81,0,41.247-14.954,47.362-36.4.284.027.569.036.834.036a10.916,10.916,0,0,0,.6-21.791Zm-.6,19.427a7.672,7.672,0,0,1-1.47-.141l-1.048-.191L109,86.994c-5.533,20.985-24.2,35.647-45.41,35.647-21.145,0-39.805-14.626-45.369-35.557l-.26-.977-.984.112a7.221,7.221,0,0,1-.93.054,8.541,8.541,0,0,1-.21-17.069l.991-.023.131-1.008c2.989-24,23.037-42.1,46.631-42.1,23.617,0,43.669,18.1,46.648,42.116l.138,1.074,1.411-.063a8.542,8.542,0,0,1,0,17.078ZM57.306,4.08a6.308,6.308,0,0,1,5.888,6.366c-.122,2.515-1.956,3.957-5.047,3.961-.317.029-.61.036-.9.036-4.706,0-5.671-3.234-5.848-4.224a6.287,6.287,0,0,1,4.7-7.031c.337-.105.663-.193.984-.272l-.109,1.129Z" transform="translate(-2.412)" fill="#fff"/>
      <path id="Path_2" data-name="Path 2" d="M80.708,119.269c-13.565,0-24.6,8.76-24.6,19.529a6.851,6.851,0,0,0,1.089,4.276,3.728,3.728,0,0,0,3.157,1.387c1.823,0,4.156-.779,6.885-1.691,3.781-1.255,8.477-2.821,13.467-2.821s9.69,1.567,13.48,2.83c2.717.9,5.054,1.682,6.872,1.682,2.819,0,4.248-1.9,4.248-5.661C105.306,128.029,94.268,119.269,80.708,119.269Zm20.35,22.906c-1.51,0-3.718-.745-6.288-1.6-3.908-1.3-8.771-2.917-14.061-2.917s-10.157,1.619-14.079,2.926a24.215,24.215,0,0,1-6.3,1.545,1.89,1.89,0,0,1-1.572-.549,4.845,4.845,0,0,1-.587-2.782c0-9.506,10.11-17.242,22.537-17.242s22.539,7.735,22.539,17.242C103.246,141.915,102.255,142.175,101.058,142.175Z" transform="translate(-19.864 -42.789)" fill="#fff"/>
      <path id="Path_3" data-name="Path 3" d="M56.351,87.036c.058-.055,5.961-5.994,11.041-5.994a5.43,5.43,0,0,1,2.242.458l.229.107.692-1.74-.236-.107a7.1,7.1,0,0,0-2.927-.606c-5.786,0-11.992,6.257-12.254,6.521l-.181.191,1.212,1.357Z" transform="translate(-18.69 -25.011)" fill="#fff"/>
      <path id="Path_6" data-name="Path 6" d="M175.259,76.707l1.132.054c.15,0,.557.022,1.127.022,2.218,0,6.2-.251,7.846-1.93a6.069,6.069,0,0,0,0-8.454,5.8,5.8,0,0,0-8.3,0c-2.075,2.121-1.921,7.987-1.868,9.139Zm2.428-2.486c.017-2.4.382-5.217,1.162-6.016a3.317,3.317,0,0,1,4.739,0,3.478,3.478,0,0,1,0,4.835c-.788.794-3.488,1.166-5.9,1.18Z" transform="translate(-87.8 -14.722)" fill="#0090ff"/>
      <path id="Path_7" data-name="Path 7" d="M69.161,87.036c-.058-.055-5.962-5.994-11.042-5.994a5.431,5.431,0,0,0-2.242.458l-.229.107-.692-1.74.236-.107a7.1,7.1,0,0,1,2.928-.606c5.786,0,11.993,6.257,12.255,6.521l.181.191-1.212,1.357Z" transform="translate(14.908 -25.011)" fill="#fff"/>
      <path id="Path_8" data-name="Path 8" d="M186.994,76.707l-1.131.054c-.15,0-.557.022-1.127.022-2.218,0-6.2-.251-7.844-1.93a6.07,6.07,0,0,1,0-8.454,5.8,5.8,0,0,1,8.3,0c2.075,2.121,1.92,7.987,1.868,9.139Zm-2.427-2.486c-.017-2.4-.381-5.217-1.162-6.016a3.315,3.315,0,0,0-4.737,0,3.479,3.479,0,0,0,0,4.835c.782.794,3.491,1.166,5.9,1.18Z" transform="translate(-152.512 -14.722)" fill="#0090ff"/>
    </g>
  </g>
</svg>
